<svg width="36" height="50" viewBox="0 0 36 50" fill="none" xmlns="http://www.w3.org/2000/svg">
<path fill-rule="evenodd" clip-rule="evenodd" d="M25.5798 47.2911C24.7597 47.6119 23.8504 47.7898 22.8878 47.7898C21.3729 47.7898 19.1628 47.0416 19.1628 44.6884C19.1628 42.8347 20.4998 41.569 22.6742 41.569C23.5299 41.569 24.5279 41.7116 25.5801 42.2465V40.7133C24.849 40.3926 23.6725 40.1607 22.4068 40.1607C18.4674 40.1607 15.8293 41.9434 15.8293 44.831C15.8293 47.5942 18.3961 49.323 22.496 49.323C23.4766 49.323 24.6174 49.1448 25.5798 48.8061V47.2911ZM26.7206 47.2555C27.8081 47.8081 28.7881 47.9686 30.0362 47.9686C30.8206 47.9686 31.8719 47.7724 31.8719 47.0237C31.8719 46.1323 30.4462 45.9718 28.931 45.4731C27.7186 45.0631 26.649 44.2963 26.649 42.8881C26.649 41.1593 28.2178 40.161 30.9628 40.161C31.9611 40.161 33.066 40.321 33.9753 40.5884V42.1396C33.2265 41.7829 32.3172 41.4977 31.4259 41.4977C30.749 41.4977 29.911 41.7296 29.911 42.3534C29.911 43.1552 31.4085 43.3517 32.7099 43.7791C34.3317 44.314 35.0987 45.0092 35.0987 46.4354C35.0987 47.5406 34.2964 49.323 30.3213 49.323C29.1807 49.323 27.8081 49.1268 26.7206 48.8243V47.2555ZM11.676 40.3572H14.8667V49.1268H11.676V40.3572ZM6.79164 45.0448C8.11067 44.6174 9.07329 43.7435 9.07329 42.6922C9.07329 41.7829 8.73455 41.0877 7.70065 40.6597C6.9342 40.339 5.75746 40.3572 4.91973 40.3572H0V49.1268H3.19067V41.658H3.90379C5.09822 41.658 5.79338 42.086 5.79338 43.0306C5.79338 44.4569 3.65429 45.2056 3.65429 45.2056C4.49202 46.4357 5.33003 47.5406 5.81134 48.0758C6.73831 49.0384 7.41551 49.3059 8.68123 49.3059C9.39435 49.3059 10.1072 49.2702 11.0162 49.1271C9.75077 48.3604 7.45116 45.8472 6.79164 45.0448ZM26.5241 18.7345C26.5241 18.7345 27.6296 18.8771 29.0735 19.9466C30.6061 21.0695 31.6937 20.838 32.4424 20.2497C33.2804 19.5902 33.1376 18.8058 33.1376 18.8058C33.1376 18.8058 32.0863 19.3048 31.1231 19.3048C29.9826 19.3225 29.5369 19.0553 28.7881 18.8235C27.6655 18.4671 26.5241 18.7345 26.5241 18.7345ZM35.0987 17.5401C35.0987 24.1356 31.4444 29.893 26.0428 32.8881C26.1854 32.2819 26.4885 29.6435 23.3158 26.1141C20.82 23.3512 16.738 22.6737 15.6685 18.8235C14.6885 15.2941 16.3819 12.5314 16.3819 12.5314C16.3819 12.5314 14.6885 12.157 14.6885 10.1608C14.6885 8.8774 15.6331 8.16428 15.6511 8.18196C15.5441 8.44941 15.4905 8.75251 15.4905 9.07329C15.4905 10.4103 16.5604 11.4798 17.8791 11.4798C18.0753 11.4798 18.2715 11.4622 18.4317 11.4085C18.2361 11.7296 14.1359 18.4674 23.0486 22.6922C24.35 22.3001 25.9362 22.7635 26.9168 24.3856C26.9168 24.3856 28.7881 22.9953 28.4317 20.3572C27.9504 20.8385 27.3265 21.2842 26.578 21.2842C25.1518 21.2842 23.94 20.1613 23.94 18.7351C23.94 17.2912 25.0987 16.1147 26.5424 16.1147C27.7542 16.1147 28.7168 16.9704 29.0199 18.0753C30.6061 17.0058 30.7136 15.5978 30.7136 15.5978C30.7136 15.5978 31.7119 15.259 32.0863 14.4569C32.175 14.261 31.9793 14.1182 31.9793 14.1182C31.9793 14.1182 28.8417 12.6386 26.1854 11.3909C25.9359 11.2839 26.3642 10.9455 26.5598 10.5711C26.9698 9.80465 24.2248 8.59254 22.7452 8.2538L25.3303 1.80119C31.1057 4.67023 35.0987 10.6418 35.0987 17.5401ZM17.5404 35.0982C17.166 35.0982 16.7919 35.0808 16.4175 35.0625C16.5424 34.7061 16.8809 33.4763 16.5424 31.4436C15.8293 27.1303 13.3158 25.9716 12.193 23.6899C12.193 23.6899 11.7473 24.7774 11.5868 26.2037C11.5868 26.2037 10.1428 25.2048 9.9113 22.4065C9.75077 20.4636 10.6598 15.6685 14.6528 13.6363C14.6528 13.6363 10.6777 17.9145 12.9594 21.8362C12.9594 21.8362 13.2802 21.1231 13.7792 20.5528C13.7792 20.5528 14.0287 22.068 16.5421 24.3141C18.5027 26.0608 22.0321 29.002 21.5334 34.6351C20.2248 34.9433 18.8848 35.0987 17.5404 35.0982ZM18.521 0C20.2854 0.106926 21.9968 0.463347 23.5835 1.05158C23.3335 2.21037 22.2999 3.13734 21.0698 3.13734C19.6441 3.13734 18.4853 1.99652 18.4853 0.588235C18.4853 0.445666 18.5027 0.17821 18.521 0ZM11.3729 1.08722C13.0111 0.484169 14.7287 0.123845 16.4711 0.0176809C16.4888 0.195891 16.5068 0.427705 16.5068 0.570273C16.5068 1.99624 15.3483 3.15502 13.9223 3.15502C12.674 3.1553 11.6224 2.26397 11.3729 1.08722ZM0.000280492 17.5401C0.000280492 10.6951 3.92175 4.7592 9.62588 1.85367L12.2106 8.2886C11.0518 8.6453 7.45115 9.60764 4.79512 13.2619C4.79512 13.2619 6.29265 12.8699 7.34423 13.4937C7.34423 13.4937 4.3851 15.7218 3.13734 18.9127C3.13734 18.9127 2.54911 28.4673 11.0518 33.8507C4.58127 31.2657 0.000280492 24.9379 0.000280492 17.5401Z" fill="white"/>
</svg>
